<svg id="Shape_3_copy_2" data-name="Shape 3 copy 2" xmlns="http://www.w3.org/2000/svg" viewBox="0 0 249.32 120.56"><defs><style>.cls-1{fill:#fff;}.cls-2{fill:#b5e3e7;}.cls-3{fill:#74cfd0;}</style></defs><title>Header Logo form</title><path class="cls-1" d="M-11.55,655.42a6.37,6.37,0,0,1,4.47,1.71,5.42,5.42,0,0,1,1.84,4.12A5.39,5.39,0,0,1-6.74,665a6.19,6.19,0,0,1-3.73,2l4.3,8.78a.85.85,0,0,1,0,.68.88.88,0,0,1-.45.51A.87.87,0,0,1-7,677a.83.83,0,0,1-.8-.5l-4.67-9.47h-5V676a.87.87,0,0,1-.27.63.86.86,0,0,1-.63.26.89.89,0,0,1-.63-.26.89.89,0,0,1-.26-.63v-19.7a.86.86,0,0,1,.26-.63.89.89,0,0,1,.63-.26ZM-7,661.25a3.68,3.68,0,0,0-1.33-2.85,4.63,4.63,0,0,0-3.2-1.19h-5.94v8.08h6a4.58,4.58,0,0,0,3.13-1.21A3.69,3.69,0,0,0-7,661.25Z" transform="translate(74.27 -592.63)"/><path class="cls-1" d="M13.54,655.42A6.37,6.37,0,0,1,18,657.12a5.51,5.51,0,0,1,.33,7.9,6.19,6.19,0,0,1-3.73,2l4.3,8.78a.85.85,0,0,1,0,.68.88.88,0,0,1-.45.51.87.87,0,0,1-.39.09.83.83,0,0,1-.8-.5l-4.67-9.47h-5V676a.9.9,0,0,1-.91.89A.88.88,0,0,1,5.8,676v-19.7a.86.86,0,0,1,.26-.63.89.89,0,0,1,.63-.26Zm4.53,5.83a3.68,3.68,0,0,0-1.33-2.85,4.63,4.63,0,0,0-3.2-1.19H7.6v8.08h6a4.58,4.58,0,0,0,3.13-1.21A3.69,3.69,0,0,0,18.07,661.25Z" transform="translate(74.27 -592.63)"/><path class="cls-1" d="M32.74,676.14a.91.91,0,0,1-1.81,0V656.35a.91.91,0,0,1,1.81,0Z" transform="translate(74.27 -592.63)"/><path class="cls-1" d="M60.71,676.73l0,0,0,0L46.86,658.89v17.25a.91.91,0,0,1-1.81,0V656.25a.9.9,0,0,1,1.62-.56L60.5,673.5V656.25a.9.9,0,0,1,.89-.91.89.89,0,0,1,.65.27.87.87,0,0,1,.26.63v20a.3.3,0,0,1,0,.09.27.27,0,0,1,0,.08l0,.09,0,.08a.2.2,0,0,1,0,.08l0,.08-.06.08-.06.06,0,0s0,0,0,0l0,0-.09,0-.06,0-.11,0-.06,0-.17,0-.18,0-.06,0L61,677l-.06,0-.11-.06-.06,0,0,0Z" transform="translate(74.27 -592.63)"/><path class="cls-1" d="M91.34,665a.89.89,0,0,0-.65-.27H82.2a.88.88,0,0,0-.65.27.84.84,0,0,0-.27.63.89.89,0,0,0,.27.65.91.91,0,0,0,.65.26h7.58V673A9,9,0,1,1,89.32,659a.89.89,0,0,0,.66.18.85.85,0,0,0,.6-.35.84.84,0,0,0,.18-.68.9.9,0,0,0-.35-.6,10.57,10.57,0,0,0-6.6-2.24,10.85,10.85,0,1,0,6,19.91s1.81-1.27,1.81-1.81v-7.8A.87.87,0,0,0,91.34,665Z" transform="translate(74.27 -592.63)"/><path class="cls-1" d="M108,657.18h-6a.91.91,0,0,1-.65-.26.91.91,0,0,1,0-1.27.89.89,0,0,1,.65-.27h13.73a.9.9,0,0,1,.63,1.54.86.86,0,0,1-.63.26h-6v19a.88.88,0,0,1-.91.91.89.89,0,0,1-.63-.26.91.91,0,0,1-.26-.65Z" transform="translate(74.27 -592.63)"/><path class="cls-1" d="M135.68,677a10.83,10.83,0,1,1,7.66-3.17A10.44,10.44,0,0,1,135.68,677Zm0-19.86a9.08,9.08,0,1,0,6.37,2.66A8.66,8.66,0,0,0,135.68,657.18Z" transform="translate(74.27 -592.63)"/><path class="cls-1" d="M173.46,676.73l0,0,0,0-13.82-17.81v17.25a.91.91,0,0,1-1.81,0V656.25a.9.9,0,0,1,1.62-.56l13.84,17.81V656.25a.9.9,0,0,1,.89-.91.89.89,0,0,1,.65.27.86.86,0,0,1,.26.63v20a.3.3,0,0,1,0,.09.27.27,0,0,1,0,.08.5.5,0,0,1,0,.09l0,.08a.18.18,0,0,1,0,.08l0,.08-.06.08-.06.06,0,0s0,0,0,0l0,0-.09,0-.06,0-.11,0-.06,0-.17,0-.18,0-.06,0-.12,0-.06,0-.11-.06-.06,0,0,0Z" transform="translate(74.27 -592.63)"/><path class="cls-1" d="M-58.57,655.67a.84.84,0,0,0-.63-.27.89.89,0,0,0-.65.27.86.86,0,0,0-.26.63v19.83a.86.86,0,0,0,.26.63.89.89,0,0,0,.65.27.84.84,0,0,0,.63-.27.84.84,0,0,0,.27-.63V656.31A.84.84,0,0,0-58.57,655.67Z" transform="translate(74.27 -592.63)"/><path class="cls-1" d="M-72.45,656.31a.87.87,0,0,0-.26-.63.89.89,0,0,0-.65-.27.84.84,0,0,0-.63.27.84.84,0,0,0-.27.63v19.83a.84.84,0,0,0,.27.63.84.84,0,0,0,.63.27.89.89,0,0,0,.65-.27.87.87,0,0,0,.26-.63Z" transform="translate(74.27 -592.63)"/><path class="cls-1" d="M-66.46,665.34H-73a.84.84,0,0,0-.63.27.84.84,0,0,0-.27.63.89.89,0,0,0,.27.65.87.87,0,0,0,.63.26h6.5Z" transform="translate(74.27 -592.63)"/><path class="cls-1" d="M-59.12,665.61a.84.84,0,0,0-.63-.27H-73l4.32,1.81h8.93a.87.87,0,0,0,.63-.26.89.89,0,0,0,.27-.65A.84.84,0,0,0-59.12,665.61Z" transform="translate(74.27 -592.63)"/><path class="cls-1" d="M-29.42,675.79l-2.1-5.06v0L-37.64,656l-.08-.17s0,0-.06-.06l-.06-.08-.08-.06-.06,0a.82.82,0,0,0-.33-.14h-.08l-.09,0-.11,0h-.08a.81.81,0,0,0-.32.14l-.06,0-.08.06-.06.08-.06.06-.08.17-6.12,14.76v0l-2.1,5.06a.83.83,0,0,0,0,.69A.82.82,0,0,0-47,677l.17.08h.18a.83.83,0,0,0,.83-.56l7.39-17.82,7.39,17.82a.83.83,0,0,0,.83.56.82.82,0,0,0,.35-.08.82.82,0,0,0,.48-.48A.84.84,0,0,0-29.42,675.79Z" transform="translate(74.27 -592.63)"/><path class="cls-1" d="M16.7,708.15l-6-16.89H8.76v-.73h8.68v.73h-2.5l3.81,11.34h0l4-11.34h-2.4v-.73h5.21v.73H23.73l-6.25,16.89Z" transform="translate(74.27 -592.63)"/><path class="cls-1" d="M25.36,707.85v-.73H27.1V696.71H25.36V696h1.5q1.87,0,3.73-.15v11.29h1.74v.73Zm2.16-14.4a1.87,1.87,0,1,1,1.33.56A1.82,1.82,0,0,1,27.51,693.46Z" transform="translate(74.27 -592.63)"/><path class="cls-1" d="M33.45,707.85v-.73H35.2V691.25H33.45v-.73H35q1.87,0,3.73-.15v16.75h1.74v.73Z" transform="translate(74.27 -592.63)"/><path class="cls-1" d="M41.55,707.85v-.73h1.74V691.25H41.55v-.73H43q1.87,0,3.73-.15v16.75h1.74v.73Z" transform="translate(74.27 -592.63)"/><path class="cls-1" d="M61.27,699.35v5.74a2.79,2.79,0,0,0,.33,1.62,1.75,1.75,0,0,0,1.39.41v.73q-1.79.15-2.71.15a3.14,3.14,0,0,1-1.71-.36,2,2,0,0,1-.72-1.38h0q-.65,1.89-3.93,1.89a3.57,3.57,0,0,1-2.75-1,4,4,0,0,1-1-2.82,3.93,3.93,0,0,1,.18-1.25,2.29,2.29,0,0,1,.51-.88,3.48,3.48,0,0,1,.8-.61,4.28,4.28,0,0,1,1-.41l1.24-.3q.67-.16,1.42-.28a13.65,13.65,0,0,0,2.42-.73v-1.5a2,2,0,0,0-.45-1.43,2.27,2.27,0,0,0-1.68-.48,2.21,2.21,0,0,0-1.34.33,1.18,1.18,0,0,0-.49.8c0,.31-.07.63-.08,1a1.22,1.22,0,0,1-.34.81,1.44,1.44,0,0,1-1.07.33A1.17,1.17,0,0,1,51,698.33a1.94,1.94,0,0,1,.46-1.3,2.84,2.84,0,0,1,1.21-.82,8.11,8.11,0,0,1,1.48-.4,8.85,8.85,0,0,1,1.45-.12q1.09,0,1.84.06A8.23,8.23,0,0,1,59,696a3.28,3.28,0,0,1,1.25.61A2.81,2.81,0,0,1,61,697.7,4.18,4.18,0,0,1,61.27,699.35Zm-3.49,3.3v-2.08l-2.08.75a2.94,2.94,0,0,0-1.55,1.08,4.13,4.13,0,0,0-.48,2.27q0,2.33,1.79,2.33a1.88,1.88,0,0,0,1.13-.34,2.17,2.17,0,0,0,.69-.76,4.2,4.2,0,0,0,.35-1.12,7.28,7.28,0,0,0,.15-1.1Q57.78,703.25,57.78,702.64Z" transform="translate(74.27 -592.63)"/><path class="cls-1" d="M68.23,704.83l3,.1q1,0,1.56.07a9.88,9.88,0,0,1,1.42.25,3.7,3.7,0,0,1,1.31.55,2.88,2.88,0,0,1,.81,1,3.49,3.49,0,0,1,.35,1.62,3.93,3.93,0,0,1-1.85,3.6,8.86,8.86,0,0,1-4.74,1.15c-.36,0-.73,0-1.11,0a12.05,12.05,0,0,1-1.44-.23,7.12,7.12,0,0,1-1.51-.48,3.19,3.19,0,0,1-1.14-.9,2.1,2.1,0,0,1-.49-1.37,2,2,0,0,1,.84-1.7,4.07,4.07,0,0,1,2-.78v0a2.6,2.6,0,0,1-1.82-.87,2.83,2.83,0,0,1-.68-1.94,2.75,2.75,0,0,1,.59-1.73A3.5,3.5,0,0,1,66.82,702a2.89,2.89,0,0,1-1.07-2.28,3.47,3.47,0,0,1,1.38-3,5.65,5.65,0,0,1,3.44-1,4.83,4.83,0,0,1,3.54,1.26,4.74,4.74,0,0,1,.35-.41c.14-.15.28-.28.42-.41a1.71,1.71,0,0,1,.55-.32,2,2,0,0,1,.72-.12A1.84,1.84,0,0,1,78,697.53a1,1,0,0,1-.33.79,1.21,1.21,0,0,1-.81.28,1.55,1.55,0,0,1-.67-.12.72.72,0,0,1-.36-.36,1.57,1.57,0,0,1-.13-.41,3.45,3.45,0,0,1,0-.46q0-.39-.32-.39c-.13,0-.38.19-.75.56a4.43,4.43,0,0,1,.53,2.08,3.16,3.16,0,0,1-1.42,2.8,5.81,5.81,0,0,1-3.33,1,5,5,0,0,1-3-.85,4.29,4.29,0,0,0-1,.57.82.82,0,0,0-.29.64Q66.15,704.78,68.23,704.83Zm6.4,5.11a1.58,1.58,0,0,0-.44-1.15,2.35,2.35,0,0,0-1.24-.62,9.9,9.9,0,0,0-1.32-.21q-.52,0-1.3,0t-1.21,0a6.61,6.61,0,0,0-1,.15,2.08,2.08,0,0,0-.86.35,1.82,1.82,0,0,0-.5.67,2.48,2.48,0,0,0-.21,1.07,1.84,1.84,0,0,0,1,1.71,5.22,5.22,0,0,0,2.57.57Q74.63,712.46,74.63,709.94Zm-5.13-7.72a1.59,1.59,0,0,0,1.87,0,1.59,1.59,0,0,0,.49-.87,7.82,7.82,0,0,0,.17-.93q0-.36,0-.95t0-.95a7.84,7.84,0,0,0-.17-.93,1.59,1.59,0,0,0-.49-.87,1.59,1.59,0,0,0-1.87,0,1.59,1.59,0,0,0-.49.87,7.62,7.62,0,0,0-.17.93q0,.36,0,.95t0,.95a7.6,7.6,0,0,0,.17.93A1.59,1.59,0,0,0,69.5,702.22Z" transform="translate(74.27 -592.63)"/><path class="cls-1" d="M91.25,701.31H83.11v1q0,4.77,3.15,4.77a4.35,4.35,0,0,0,4.12-2.91l.65.29a5.36,5.36,0,0,1-5.4,3.64,6.25,6.25,0,0,1-4.57-1.7,6.66,6.66,0,0,1,0-9,6.16,6.16,0,0,1,4.53-1.76,5.64,5.64,0,0,1,4,1.5A5.41,5.41,0,0,1,91.25,701.31Zm-8.14-.73h4.36v-1.11q0-3.05-2-3.05a2,2,0,0,0-.84.17,2.62,2.62,0,0,0-.61.36,1.65,1.65,0,0,0-.41.63c-.12.29-.21.52-.27.69a4.25,4.25,0,0,0-.15.82q-.06.57-.07.75C83.14,700,83.13,700.21,83.11,700.58Z" transform="translate(74.27 -592.63)"/><path class="cls-2" d="M70.74,644.77l-13.65-38.2H52.76v-1.64H72.38v1.64H66.74l8.6,25.65h.11l9-25.65H79v-1.64H90.8v1.64H86.63l-14.14,38.2Z" transform="translate(74.27 -592.63)"/><rect class="cls-2" y="44.48" width="132.16" height="2.27"/><polygon class="cls-3" points="127.03 6.84 127.03 1.78 132.16 1.78 132.16 0.07 127.03 0.07 125.1 0.07 119.97 0.07 119.97 1.78 125.1 1.78 125.1 6.84 125.1 18.25 107.89 18.25 107.89 1.71 113.36 1.71 113.36 0 107.89 0 99 0 93.52 0 93.52 1.71 99 1.71 99 37.35 93.52 37.35 93.52 39.06 99 39.06 107.89 39.06 113.36 39.06 113.36 37.35 107.89 37.35 107.89 20.82 125.1 20.82 125.1 32.29 125.1 37.35 119.97 37.35 119.97 39.06 125.1 39.06 127.03 39.06 132.16 39.06 132.16 37.35 127.03 37.35 127.03 32.29 127.03 6.84"/><rect class="cls-3" x="153" y="49.87" width="96.32" height="2.27"/></svg>